<svg xmlns="http://www.w3.org/2000/svg" viewBox="0 0 500 500">
  <defs>
    <linearGradient id="grad1" x1="0%" y1="0%" x2="100%" y2="100%">
      <stop offset="0%" style="stop-color:#8e44ad;stop-opacity:0.8">
        <animate attributeName="stop-color" values="#8e44ad;#9b59b6;#8e44ad" dur="20s" repeatCount="indefinite" />
      </stop>
      <stop offset="100%" style="stop-color:#3498db;stop-opacity:0.8">
        <animate attributeName="stop-color" values="#3498db;#2980b9;#3498db" dur="20s" repeatCount="indefinite" />
      </stop>
    </linearGradient>
    <filter id="glow">
      <feGaussianBlur stdDeviation="3" result="coloredBlur"/>
      <feMerge>
        <feMergeNode in="coloredBlur"/>
        <feMergeNode in="SourceGraphic"/>
      </feMerge>
    </filter>
    <clipPath id="circle-clip">
      <circle cx="250" cy="250" r="250" />
    </clipPath>
  </defs>
  
  <g clip-path="url(#circle-clip)">
    <rect width="100%" height="100%" fill="url(#grad1)" />
    
    <g fill="#ffffff" opacity="0.15" filter="url(#glow)">
      <circle cx="125" cy="175" r="50">
        <animate attributeName="r" values="50;55;50" dur="10s" repeatCount="indefinite" />
      </circle>
      <rect x="205" y="135" width="90" height="90">
        <animateTransform attributeName="transform" type="rotate" from="0 250 180" to="360 250 180" dur="30s" repeatCount="indefinite" />
      </rect>
      <polygon points="325,135 365,175 325,215 285,175">
        <animate attributeName="opacity" values="0.15;0.25;0.15" dur="15s" repeatCount="indefinite" />
      </polygon>
    </g>
    
    <path fill="#ffffff" opacity="0.4" filter="url(#glow)" d="M113.929626,321.130066 C104.527809,323.153839 97.6415331,317.819702 97.3614657,308.404724 C96.7617417,288.244202 100.105866,268.651184 105.997376,249.438278 C106.312836,248.409531 106.773216,247.418656 107.235840,246.443207 C107.847634,245.153229 108.919518,244.690903 110.320854,244.852616 C111.665596,245.007813 112.343117,245.862213 112.787186,246.026810 C113.191735,246.087738 113.087288,247.137131 112.868111,248.219528 C110.872261,258.075897 108.688057,267.900391 106.979508,277.806702 C105.639473,285.576355 104.395531,293.402161 104.664986,301.348542 C104.698494,302.336762 104.814194,303.345734 105.065918,304.299134 C106.614052,310.162781 110.735817,312.158173 116.289025,309.778687 C120.398468,308.017884 123.968781,305.416992 127.269417,302.469574 C134.926499,295.631867 142.223816,288.415772 147.944138,279.840149 C153.543915,271.445221 153.233704,263.264496 147.042145,255.323944 C141.934204,248.773087 138.726578,241.638169 139.369828,233.225464 C140.294235,221.135544 146.101654,212.002762 157.097916,206.789307 C167.546799,201.835404 177.320191,207.878159 179.160233,219.958878 C180.659882,229.804856 178.723404,239.148377 175.022476,248.235413 C174.269089,250.085236 173.400589,251.907028 172.854874,253.818741 C171.642227,258.066834 173.058319,260.087586 177.381607,260.838867 C183.060013,261.825653 188.642578,261.208496 194.228195,260.117462 C205.148011,257.984497 214.992325,253.069687 224.930313,248.378906 C226.076081,247.838089 226.339478,246.798706 226.767853,245.832733 C233.928345,229.686096 241.401474,213.687516 249.858948,198.173508 C267.214203,166.337845 287.026978,136.182816 311.036896,108.895943 C320.896973,97.6901016 330.997284,86.7159271 342.314575,76.9651108 C351.803498,68.7896271 362.290558,62.2541580 374.624726,59.1652260 C378.130341,58.2873001 381.721741,57.9135361 385.270020,58.5300179 C392.713349,59.8232002 396.945862,64.5068283 398.165253,72.4123077 C399.417053,80.5280001 397.568390,88.3300629 395.473297,96.0296249 C391.725037,109.804550 384.672852,121.964447 376.325318,133.402878 C365.582062,148.124115 352.996521,161.186600 339.869202,173.774948 C326.609131,186.490616 312.270539,197.844620 297.273926,208.414536 C280.744629,220.064713 263.113220,229.773422 244.872742,238.429398 C241.219559,240.163010 237.541535,242.118515 235.761383,245.906250 C229.146073,259.981964 223.719895,274.436646 223.486786,290.282105 C223.407303,295.684387 224.272141,300.877747 227.539810,305.447266 C230.686905,309.848175 235.081009,311.904724 240.281113,312.297669 C246.859818,312.794800 252.914170,310.756714 258.816864,308.079468 C274.435852,300.995270 288.139740,290.993012 301.361847,280.254395 C313.970124,270.014313 326.559387,259.750824 339.143250,249.480698 C340.390198,248.463028 341.727112,247.711197 343.277283,247.242447 C344.689362,246.815460 345.730164,247.176026 346.547821,248.318894 C347.413788,249.529328 347.149811,250.635010 346.227234,251.717682 C344.754425,253.446076 342.927826,254.768189 341.197815,256.199677 C328.752594,266.497345 316.412323,276.926117 303.815827,287.035553 C290.741577,297.528443 277.078064,307.171173 261.865998,314.446900 C253.654450,318.374359 245.155960,320.341767 236.013596,319.704804 C227.362503,319.102051 218.946381,311.849579 216.315033,302.562409 C213.560517,292.840546 215.116669,283.270386 217.037674,273.689301 C218.133988,268.221344 219.729279,262.893585 221.780579,257.496155 C220.332398,257.209870 219.393067,257.009156 218.416123,257.471436 C210.960297,261.999390 203.482041,266.454926 195.438599,269.489502 C187.605759,272.470856 179.655335,273.023560 171.664917,272.036774 C166.443146,271.391938 162.924942,273.403687 160.118927,277.648621 C155.156998,285.155030 149.879135,292.447754 143.910340,299.199982 C136.312851,308.794647 128.128449,317.702973 117.635041,322.775147 C116.518448,323.314850 115.305260,323.654694 113.929626,321.130066 M382.251679,109.540718 C384.976441,104.091545 387.074555,98.3810887 389.185181,92.6820908 C391.013245,87.7460556 392.397858,82.7372897 391.876587,77.3329315 C391.080200,69.0761490 383.566590,63.3950043 376.254425,66.3719406 C369.202881,69.2427521 361.981781,72.0374832 355.949646,76.9277878 C333.824127,94.8651886 314.782501,115.781311 297.503083,138.306443 C279.090515,162.308701 263.718170,188.217331 250.485688,215.403626 C248.517899,219.446472 246.630051,223.528473 244.731430,227.604538 C244.322312,228.482849 243.629074,229.452240 244.535568,230.364746 C245.434235,231.269409 246.408844,230.486725 247.336731,230.245743 C247.575089,230.183823 247.794922,230.049088 248.021881,229.944763 C262.136688,223.457367 275.472595,215.615158 288.343659,206.937943 C302.184357,197.607056 315.116822,187.117371 327.776398,176.278321 C341.532624,164.500321 354.601410,152.056000 365.336426,137.346268 C371.683960,128.648453 377.522278,119.657563 382.251679,109.540718 M172.221344,220.629380 C171.640961,216.459641 169.450745,213.808274 165.184204,213.012573 C160.775345,212.190354 157.375992,214.018906 154.594498,217.146256 C150.187897,222.100861 148.567200,228.219986 148.264984,234.614945 C147.966645,240.927857 149.025025,247.058579 152.970703,252.318115 C156.677536,257.259247 162.266129,257.111206 165.607254,251.983933 C166.283905,250.945526 166.873093,249.840119 167.406082,248.719681 C171.576065,239.953522 172.964569,230.690430 172.221344,220.629380 z">
      <animate attributeName="opacity" values="0.4;0.5;0.4" dur="15s" repeatCount="indefinite" />
    </path>
  </g>
</svg>